<?xml version="1.0" encoding="UTF-8" standalone="no"?><!DOCTYPE svg PUBLIC "-//W3C//DTD SVG 1.1//EN" "http://www.w3.org/Graphics/SVG/1.1/DTD/svg11.dtd"><svg width="24px" height="24px" version="1.1" xmlns="http://www.w3.org/2000/svg" xmlns:xlink="http://www.w3.org/1999/xlink" xml:space="preserve" xmlns:serif="http://www.serif.com/" style="fill-rule:evenodd;clip-rule:evenodd;stroke-linecap:round;stroke-linejoin:round;stroke-miterlimit:1.5;"><path d="M15.372,17.658l-8.707,-8.916l8.064,-7.869l8.707,8.916l-8.064,7.869Zm3.421,-4.634l3.4,-3.323l-7.41,-7.591l-3.401,3.323c0.385,-0.126 0.687,-0.102 0.789,0.205c0.404,1.164 -2.051,1.832 -1.364,2.933c0.687,1.101 3.103,-4.068 4.438,-2.48c1.335,1.588 -4.536,4.146 -3.639,5.062c1.257,1.292 2.231,-2.933 3.99,-1.476c1.34,1.106 -1.603,3.859 1.418,2.022c1.423,-0.867 2.217,-0.063 1.779,1.325Z" style="stroke:#000;stroke-width:0.19px;"/><path d="M1.788,22.428l-0.209,-0.219c-2.183,-2.232 0.575,-3.163 2.986,-5.146c2.412,-1.983 1.35,-7.172 1.35,-7.172l8.244,8.444c0,0 -5.111,-1.135 -7.153,1.228c-2.041,2.363 -3.035,5.096 -5.218,2.865Zm2.963,-3.104c0.584,0.599 0.609,1.52 0.058,2.061c-0.555,0.541 -1.476,0.492 -2.061,-0.107c-0.585,-0.599 -0.609,-1.52 -0.058,-2.061c0.55,-0.541 1.476,-0.492 2.061,0.107Z" style="stroke:#000;stroke-width:0.63px;"/></svg>